<svg width="18" height="16" viewBox="0 0 18 16" fill="none" xmlns="http://www.w3.org/2000/svg">
<g clip-path="url(#clip0_5_44)">
<path d="M6.07141 16C4.95188 16 4.04358 15.0376 4.04358 13.8586C4.04358 12.6796 4.9549 11.714 6.07141 11.714C7.18792 11.714 8.10225 12.6764 8.10225 13.8586C8.10225 15.0408 7.19094 16 6.07141 16Z" fill="#FF5A11"/>
<path d="M15.1815 16C14.062 16 13.1507 15.0376 13.1507 13.8586C13.1507 12.6796 14.062 11.714 15.1815 11.714C16.3011 11.714 17.2094 12.6764 17.2094 13.8586C17.2094 15.0408 16.2981 16 15.1815 16Z" fill="#FF5A11"/>
<path d="M15.1815 14.1868H6.52404C6.28263 14.1868 6.05027 14.0625 5.90845 13.8554C5.7636 13.6451 5.72437 13.3774 5.79679 13.132L6.95857 10.1143C7.02496 9.94543 7.20601 9.86258 7.36595 9.93269C7.52588 10.0028 7.60132 10.194 7.53795 10.3629L6.38221 13.3551C6.37617 13.3742 6.38221 13.4252 6.40937 13.4635C6.43653 13.5017 6.47575 13.524 6.52102 13.524H15.1785C15.3505 13.524 15.4924 13.6706 15.4924 13.8554C15.4924 14.0402 15.3535 14.1868 15.1785 14.1868H15.1815Z" fill="#FF5A11"/>
<path d="M17.8521 2.17327C17.7073 1.96614 17.4779 1.84504 17.2365 1.84504H4.19445L3.58187 0.366454C3.53057 0.245363 3.41892 0.168884 3.2952 0.168884H0.398303C0.2263 0.168884 0.0844727 0.315469 0.0844727 0.497106C0.0844727 0.678743 0.223282 0.828514 0.398303 0.828514H3.09L6.91331 10.0824C7.03401 10.3788 7.30861 10.57 7.61641 10.57H15.1091C15.4441 10.57 15.7368 10.3438 15.8394 10.006L17.9638 2.89344C18.0362 2.64807 17.9939 2.3804 17.8521 2.17327ZM14.4724 8.65803H8.07207C7.90006 8.65803 7.75824 8.51145 7.75824 8.32662C7.75824 8.1418 7.89705 7.99521 8.07207 7.99521H14.4694C14.6414 7.99521 14.7832 8.1418 14.7832 8.32662C14.7832 8.51145 14.6444 8.65803 14.4694 8.65803H14.4724ZM15.0186 6.5708H7.5289C7.35689 6.5708 7.21507 6.42421 7.21507 6.23939C7.21507 6.05456 7.35388 5.90798 7.5289 5.90798H15.0186C15.1906 5.90798 15.3324 6.05456 15.3324 6.23939C15.3324 6.42421 15.1936 6.5708 15.0186 6.5708ZM15.4652 4.48356H7.07928C6.90727 4.48356 6.76544 4.33698 6.76544 4.15215C6.76544 3.96733 6.90425 3.82075 7.07928 3.82075H15.4652C15.6372 3.82075 15.779 3.96733 15.779 4.15215C15.779 4.33698 15.6402 4.48356 15.4652 4.48356Z" fill="#FF5A11"/>
<path d="M0.986756 0.522605C0.986756 0.8094 0.766471 1.04202 0.491869 1.04202C0.217267 1.04202 0 0.8094 0 0.522605C0 0.23581 0.220285 0 0.491869 0C0.763453 0 0.986756 0.232623 0.986756 0.522605Z" fill="#FF5A11"/>
</g>
<defs>
<clipPath id="clip0_5_44">
<rect width="18" height="16" fill="white"/>
</clipPath>
</defs>
</svg>
