<svg width="19" height="17" viewBox="0 0 19 17" fill="none" xmlns="http://www.w3.org/2000/svg">
<path d="M18.2588 2.78729C17.1527 0.957483 15.1723 -0.3726 13.1551 0.0939106C11.4783 0.481914 10.3101 1.64593 9.49929 2.98809C8.68705 1.64593 7.52024 0.481914 5.84349 0.0939106C3.82489 -0.3726 1.84443 0.957483 0.739774 2.78729C-0.555578 4.93112 -0.00325204 7.89475 1.26809 10.1095C2.35861 12.0118 4.10458 13.203 5.79688 14.3308C6.19099 14.5935 6.58369 14.8577 6.97639 15.1264C7.83808 15.7182 8.68564 16.3312 9.49929 17C10.3144 16.3327 11.1619 15.7182 12.0236 15.1264C12.4149 14.8577 12.8076 14.592 13.2031 14.3308C14.8954 13.203 16.64 12.0118 17.7319 10.1095C19.0033 7.89324 19.5556 4.92961 18.2602 2.78578L18.2588 2.78729Z" fill="#FF5A11"/>
</svg>
