<svg width="17" height="17" viewBox="0 0 17 17" fill="none" xmlns="http://www.w3.org/2000/svg">
<path d="M16.8034 15.8509L11.7277 10.7766C13.8421 8.18465 13.6894 4.35152 11.2755 1.93529C10.0282 0.685414 8.36893 0 6.60311 0C4.83729 0 3.18093 0.685414 1.93362 1.93529C-0.64454 4.50991 -0.64454 8.70015 1.93362 11.2748C3.18093 12.5218 4.84017 13.2101 6.60599 13.2101C8.14424 13.2101 9.60184 12.6888 10.7771 11.7269L15.8528 16.8013C15.9853 16.9338 16.1581 17 16.3281 17C16.498 17 16.6738 16.9338 16.8034 16.8013C17.0655 16.5392 17.0655 16.1101 16.8034 15.848V15.8509ZM2.8871 10.3215C0.836101 8.27105 0.836101 4.93613 2.8871 2.88853C3.88092 1.89497 5.20025 1.34779 6.60599 1.34779C8.01173 1.34779 9.33106 1.89497 10.3249 2.88853C12.3759 4.93901 12.3759 8.27393 10.3249 10.3215C9.33106 11.3151 8.01173 11.8623 6.60599 11.8623C5.20025 11.8623 3.88092 11.3151 2.8871 10.3215Z" fill="white"/>
</svg>
